{"title":"10,000 Days 2014 UNRATED HDRIP x264 AC3 TiTAN","uid":11244290,"size":1221799739,"categoryP":"video","categoryS":"movies","magnet":"?xt=urn:btih:3015b7ee2eededc0148414f406dd3f239d11456f&amp;dn=10%2C000+Days+2014+UNRATED+HDRIP+x264+AC3+TiTAN&amp;tr=udp%3A%2F%2Ftracker.openbittorrent.com%3A80&amp;tr=udp%3A%2F%2Fopen.demonii.com%3A1337&amp;tr=udp%3A%2F%2Ftracker.coppersurfer.tk%3A6969&amp;tr=udp%3A%2F%2Fexodus.desync.com%3A6969","seeders":5,"leechers":0,"uploader":"xxxlavalxxx","files":-1,"time":1413713312,"description":"[IMG]http://i.imgur.com/FGK7ldu.jpg[/IMG]\n\n &lt;a href=&quot;\nhttp://www.imdb.com/title/tt3530690/&quot; rel=&quot;nofollow&quot; target=&quot;_NEW&quot;&gt;\nhttp://www.imdb.com/title/tt3530690/&lt;/a&gt;\n\n\n10,000 Days ago, Comet 23 struck Earth with the magnitude of all the nuclear weapons in the world sending the planet into a deep freeze. Now, 27 years in the future, those who survived are locked in an epic battle of life or death.\n\nDirector: Eric Small\nWriter: Eric Small\nStars: John Schneider, Riley Smith, Kim Myers\nGenres: Sci-Fi\nCountry: USA\nLanguage: English\n\n\nSource: OWN\n\nGeneral\n\nFormat                                   : Matroska\nFormat version                           : Version 2\nFile size                                : 1.14 GiB\nDuration                                 : 1h 31mn\nOverall bit rate mode                    : Variable\nOverall bit rate                         : 1 789 Kbps\nEncoded date                             : UTC 2014-10-18 23:04:04\n\nVideo\nID                                       : 1\nFormat                                   : AVC\nFormat/Info                              : Advanced Video Codec\nFormat profile                           : High@L4.1\nFormat settings, CABAC                   : Yes\nFormat settings, ReFrames                : 3 frames\nCodec ID                                 : V_MPEG4/ISO/AVC\nDuration                                 : 1h 31mn\nBit rate mode                            : Variable\nBit rate                                 : 1 369 Kbps\nMaximum bit rate                         : 40.0 Mbps\nWidth                                    : 720 pixels\nHeight                                   : 400 pixels\nDisplay aspect ratio                     : 16:9\nFrame rate mode                          : Constant\nFrame rate                               : 23.976 fps\nColor space                              : YUV\nChroma subsampling                       : 4:2:0\nBit depth                                : 8 bits\nScan type                                : Progressive\nBits/(Pixel*Frame)                       : 0.198\nStream size                              : 892 MiB (77%)\nDefault                                  : Yes\nForced                                   : No\nColor primaries                          : BT.709\nTransfer characteristics                 : BT.709\nMatrix coefficients                      : BT.709\n\nAudio\nID                                       : 2\nFormat                                   : AC-3\nFormat/Info                              : Audio Coding 3\nMode extension                           : CM (complete main)\nFormat settings, Endianness              : Big\nCodec ID                                 : A_AC3\nDuration                                 : 1h 31mn\nBit rate mode                            : Constant\nBit rate                                 : 384 Kbps\nChannel(s)                               : 6 channels\nChannel positions                        : Front: L C R, Side: L R, LFE\nSampling rate                            : 48.0 KHz\nBit depth                                : 16 bits\nCompression mode                         : Lossy\nStream size                              : 250 MiB (21%)\nLanguage                                 : English\nDefault                                  : Yes\nForced                                   : No\n\n\n\n &lt;a href=&quot;\nhttp://i.imgur.com/o7TawPt.jpg&quot; rel=&quot;nofollow&quot; target=&quot;_NEW&quot;&gt;\nhttp://i.imgur.com/o7TawPt.jpg&lt;/a&gt;\n &lt;a href=&quot;\nhttp://i.imgur.com/OUHffhY.jpg&quot; rel=&quot;nofollow&quot; target=&quot;_NEW&quot;&gt;\nhttp://i.imgur.com/OUHffhY.jpg&lt;/a&gt;\n &lt;a href=&quot;\nhttp://i.imgur.com/nBbPwdv.jpg&quot; rel=&quot;nofollow&quot; target=&quot;_NEW&quot;&gt;\nhttp://i.imgur.com/nBbPwdv.jpg&lt;/a&gt;\n &lt;a href=&quot;\nhttp://i.imgur.com/OD3L54V.jpg&quot; rel=&quot;nofollow&quot; target=&quot;_NEW&quot;&gt;\nhttp://i.imgur.com/OD3L54V.jpg&lt;/a&gt;","torrent":{"xt":"urn:btih:3015b7ee2eededc0148414f406dd3f239d11456f","amp;dn":"10%2C000+Days+2014+UNRATED+HDRIP+x264+AC3+TiTAN","amp;tr":["udp%3A%2F%2Ftracker.openbittorrent.com%3A80","udp%3A%2F%2Fopen.demonii.com%3A1337","udp%3A%2F%2Ftracker.coppersurfer.tk%3A6969","udp%3A%2F%2Fexodus.desync.com%3A6969"],"infoHash":"3015b7ee2eededc0148414f406dd3f239d11456f","infoHashBuffer":{"type":"Buffer","data":[48,21,183,238,46,237,237,192,20,132,20,244,6,221,63,35,157,17,69,111]},"announce":[],"urlList":[]}}